<svg xmlns="http://www.w3.org/2000/svg" version="1.1" xmlns:xlink="http://www.w3.org/1999/xlink" xmlns:svgjs="http://svgjs.com/svgjs" width="1440" height="560" preserveAspectRatio="none" viewBox="0 0 1440 560"><g mask="url(&quot;#SvgjsMask1000&quot;)" fill="none"><rect width="1440" height="560" x="0" y="0" fill="#1e3266"></rect><path d="M1512 560L0 560 L0 346.27Q75.22 301.49, 120 376.7Q171.75 308.45, 240 360.21Q264.02 312.23, 312 336.25Q360.86 265.11, 432 313.97Q497.4 307.38, 504 372.78Q517.61 314.38, 576 327.99Q618.04 298.03, 648 340.07Q671.06 291.13, 720 314.19Q767.48 241.67, 840 289.15Q935.14 264.29, 960 359.44Q1011.22 290.66, 1080 341.88Q1153.85 295.73, 1200 369.57Q1236.45 286.02, 1320 322.47Q1367.35 297.82, 1392 345.17Q1431.61 264.77, 1512 304.38z" fill="#182f5d"></path><path d="M1488 560L0 560 L0 408.55Q59.05 347.61, 120 406.66Q164.61 331.27, 240 375.88Q322.75 338.63, 360 421.39Q387.34 328.73, 480 356.06Q524.97 329.03, 552 374Q628.79 330.79, 672 407.58Q720.63 384.21, 744 432.84Q778.74 347.58, 864 382.32Q929.05 327.37, 984 392.41Q1053.61 342.02, 1104 411.63Q1144.71 332.34, 1224 373.05Q1269.12 346.17, 1296 391.29Q1357.34 380.63, 1368 441.96Q1417.68 371.64, 1488 421.33z" fill="#25467d"></path><path d="M1560 560L0 560 L0 498.15Q43.48 421.63, 120 465.11Q137.41 410.52, 192 427.93Q234.7 398.63, 264 441.33Q329.7 387.03, 384 452.74Q461.63 410.38, 504 488.01Q557.23 421.24, 624 474.46Q648.6 427.05, 696 451.65Q782.18 417.83, 816 504.02Q842.75 458.77, 888 485.53Q913.56 439.09, 960 464.65Q976.84 409.49, 1032 426.32Q1076.03 398.35, 1104 442.37Q1173.92 440.29, 1176 510.21Q1208.1 422.31, 1296 454.41Q1315.72 402.13, 1368 421.85Q1409.35 391.2, 1440 432.54Q1525.15 397.69, 1560 482.84z" fill="#356cb1"></path><path d="M1464 560L0 560 L0 503.83Q71.93 455.76, 120 527.7Q184.54 520.24, 192 584.78Q211.15 483.93, 312 503.08Q366.98 438.06, 432 493.04Q492.1 481.14, 504 541.24Q545.31 462.55, 624 503.86Q668.38 476.24, 696 520.61Q765.75 470.36, 816 540.1Q889.68 493.78, 936 567.45Q1002.38 513.83, 1056 580.2Q1077.2 529.4, 1128 550.6Q1140.79 491.39, 1200 504.18Q1265.59 449.77, 1320 515.36Q1385.39 508.75, 1392 574.15Q1434.23 544.38, 1464 586.61z" fill="white"></path></g><defs><mask id="SvgjsMask1000"><rect width="1440" height="560" fill="#ffffff"></rect></mask></defs></svg>